<svg width="482" height="501" viewBox="0 0 482 501" fill="none" xmlns="http://www.w3.org/2000/svg">
<path d="M20.419 362.302V137.714L240.715 22.3415L461.13 137.502L461.559 362.3L240.715 478.001L20.419 362.302Z" stroke="white" stroke-width="39.2783"/>
<path fill-rule="evenodd" clip-rule="evenodd" d="M255.072 401.826C297.59 379.357 297.59 379.357 297.59 379.357V297.489H355.558V348.715L397.283 326.975V171.616L255.633 96.2659L255.072 401.826ZM355.558 200.812V251.993H297.59C297.59 224.983 298.401 171.805 298.401 171.805L355.558 200.812Z" fill="white"/>
<path d="M84.8481 326.954V171.645L127.252 149.278V233.46L166.712 128.457L227.059 96.2659L170.366 249.3L226.098 401.826L164.884 369.183L127.252 266.756V349.32L84.8481 326.954Z" fill="white"/>
</svg>
